<svg id="Layer_1" data-name="Layer 1" xmlns="http://www.w3.org/2000/svg" viewBox="0 0 100 100"><defs><style>.cls-1{fill:#ffcc80;}.cls-2,.cls-5{opacity:0.05;}.cls-3{fill:none;}.cls-4{fill:#fff;}.cls-5{fill:#129fff;}</style></defs><title>Artboard 6</title><path class="cls-1" d="M73.29,76.13c5.13-7.06,6.29-17.94,2.76-19.13C75.46,62.47,74.33,69.42,73.29,76.13Z"/><path class="cls-2" d="M73.29,76.13c5.13-7.06,6.29-17.94,2.76-19.13C75.46,62.47,74.33,69.42,73.29,76.13Z"/><path class="cls-1" d="M76.79,48.47a106.2,106.2,0,0,0-1.5-13.34,16.48,16.48,0,0,0-1.74-5.55c-2.34-4-7.27-5.5-11.76-6.58-5.62-1.35-11.36-2.55-17.13-2.19S33,23.26,29.18,27.57a25,25,0,0,0-4.69,8.56A46.44,46.44,0,0,0,22,53.88a.81.81,0,0,1-.31.59c-.1.06-.48-.13-.67-.4-.34-.64-.7-1.28-1-1.94a1.36,1.36,0,0,0-.7-.3c-3-.61-2.78,15.67,1.8,20.6a6.61,6.61,0,0,0,2.44,1.16l.06.34C27.16,88.12,33.3,100,48.08,100c11.85-.45,23.54-11.51,25.13-23.39,1.68-10.88,3.64-22.53,3.2-27.47C76.4,49,76.62,48.71,76.79,48.47Z"/><path id="_Path_" data-name="&lt;Path&gt;" d="M55.4,49A1.65,1.65,0,0,1,55.85,47a4.51,4.51,0,0,1,1.93-.9,44.57,44.57,0,0,1,7.36-1.39,10.1,10.1,0,0,1,5.17.47A5.71,5.71,0,0,1,73.13,48c.16.35.26.82,0,1.07a1,1,0,0,1-.82.08c-4.69-.91-9.52-.52-14.28-.13-.89.07-2.45.18-2.58-.07"/><path id="_Path_2" data-name="&lt;Path&gt;" d="M25.11,46.17a.2.2,0,0,1,0-.28,10.58,10.58,0,0,1,6.48-3.24,25.91,25.91,0,0,1,8.74.65c1,.2,2,.44,3,.69a9,9,0,0,1,2.24.81A3.23,3.23,0,0,1,47,46.47a1.73,1.73,0,0,1-.62,2.07,2.54,2.54,0,0,1-1.55.14c-5.74-.73-11.43-2.34-17.21-2A3.53,3.53,0,0,1,25.11,46.17Z"/><path id="_Path_3" data-name="&lt;Path&gt;" class="cls-3" d="M41.82,47.2a15.86,15.86,0,0,1,3.42,1,4.53,4.53,0,0,1,2.5,2.35,6.27,6.27,0,0,1-.15,4,12.61,12.61,0,0,1-2.52,5.23,9.94,9.94,0,0,1-5.89,2.89,29.57,29.57,0,0,1-6.67,0c-2.08-.15-4.32-.36-5.9-1.73a6.56,6.56,0,0,1-1.88-3.14,19.56,19.56,0,0,1-.6-3.66,14.44,14.44,0,0,1-.06-3.44,4.86,4.86,0,0,1,1.5-3,6.83,6.83,0,0,1,4.25-1.22A54.13,54.13,0,0,1,41.82,47.2Z"/><path id="_Path_4" data-name="&lt;Path&gt;" class="cls-3" d="M41.82,47.2a15.86,15.86,0,0,1,3.42,1,4.53,4.53,0,0,1,2.5,2.35,6.27,6.27,0,0,1-.15,4,12.61,12.61,0,0,1-2.52,5.23,9.94,9.94,0,0,1-5.89,2.89,29.57,29.57,0,0,1-6.67,0c-2.08-.15-4.32-.36-5.9-1.73a6.56,6.56,0,0,1-1.88-3.14,19.56,19.56,0,0,1-.6-3.66,14.44,14.44,0,0,1-.06-3.44,4.86,4.86,0,0,1,1.5-3,6.83,6.83,0,0,1,4.25-1.22A54.13,54.13,0,0,1,41.82,47.2Z"/><path id="_Path_5" data-name="&lt;Path&gt;" class="cls-3" d="M57.48,49.5c3.88-1.79,11.3-2,17-1a6.33,6.33,0,0,1,3.61,1.55,4.56,4.56,0,0,1,1.12,2.79,12.76,12.76,0,0,1-.24,3.05,19.23,19.23,0,0,1-.94,3.9A7.09,7.09,0,0,1,75.67,63C73.8,64.4,71.3,64.41,69,64.36a29.17,29.17,0,0,1-5.27-.43A9.77,9.77,0,0,1,59,61.68c-2.14-2-2.89-5.05-3.2-8a6.45,6.45,0,0,1,.08-2.47A2.46,2.46,0,0,1,57.48,49.5Z"/><path class="cls-2" d="M73.55,29.58c-2.34-4-7.27-5.5-11.76-6.58-5.62-1.35-11.36-2.55-17.13-2.19S33,23.26,29.18,27.57a25,25,0,0,0-4.69,8.56,45.28,45.28,0,0,0-2.2,9.74c.25.52.51,1,.75,1.56a44.89,44.89,0,0,1,1.86-7.32,25,25,0,0,1,4.69-8.56c3.85-4.31,9.72-6.4,15.48-6.76S56.58,25.63,62.2,27c4.5,1.08,9.42,2.6,11.76,6.58a16.48,16.48,0,0,1,1.74,5.55q.53,3,.88,6-.41-5-1.29-10A16.48,16.48,0,0,0,73.55,29.58Z"/><path d="M42.1.54C38-.13,34.19,1.18,30.48,3.75a30.42,30.42,0,0,0-5.59,5.74,29.59,29.59,0,0,0-4.64,9.22c-.42,1.43-.74,2.89-1,4.34L18.36,27c-.92,4.29-1.81,8.91-.09,12.94,1,2.33.5,5,.75,7.5a16.23,16.23,0,0,0,.7,3.83,21.5,21.5,0,0,0,1.35,2.79c.18.27.57.46.67.4a.81.81,0,0,0,.31-.59,46.44,46.44,0,0,1,2.44-17.75,25,25,0,0,1,4.69-8.56c3.85-4.31,9.72-6.4,15.48-6.76s11.51.83,17.13,2.19c4.5,1.08,9.42,2.6,11.76,6.58a16.48,16.48,0,0,1,1.74,5.55,106.21,106.21,0,0,1,1.62,20.37,70,70,0,0,0,4.93-27.37c-.08-3.54-1.33-7-1.87-10.51a29.22,29.22,0,0,0-1.62-6.83A9.83,9.83,0,0,0,73.83,5.6c-2.25-1.1-5-1-7.09-2.4-1.07-.72-1.91-1.8-3.1-2.31A7.45,7.45,0,0,0,61.11.45L55,.1a27.74,27.74,0,0,0-5.17,0,35.56,35.56,0,0,1-3.68.52A31.61,31.61,0,0,1,42.1.54Z"/><path id="_Path_6" data-name="&lt;Path&gt;" class="cls-4" d="M40.82,47.2a15.86,15.86,0,0,1,3.42,1,4.53,4.53,0,0,1,2.5,2.35,6.27,6.27,0,0,1-.15,4,12.61,12.61,0,0,1-2.52,5.23,9.94,9.94,0,0,1-5.89,2.89,29.57,29.57,0,0,1-6.67,0c-2.08-.15-4.32-.36-5.9-1.73a6.56,6.56,0,0,1-1.88-3.14,19.56,19.56,0,0,1-.6-3.66,14.44,14.44,0,0,1-.06-3.44,4.86,4.86,0,0,1,1.5-3,6.83,6.83,0,0,1,4.25-1.22A54.13,54.13,0,0,1,40.82,47.2Z"/><path id="_Path_7" data-name="&lt;Path&gt;" class="cls-4" d="M56.48,49.5c3.88-1.79,11.3-2,17-1a6.33,6.33,0,0,1,3.61,1.55,4.56,4.56,0,0,1,1.12,2.79,12.76,12.76,0,0,1-.24,3.05,19.23,19.23,0,0,1-.94,3.9A7.09,7.09,0,0,1,74.67,63C72.8,64.4,70.3,64.41,68,64.36a29.17,29.17,0,0,1-5.27-.43A9.77,9.77,0,0,1,58,61.68c-2.14-2-2.89-5.05-3.2-8a6.45,6.45,0,0,1,.08-2.47A2.46,2.46,0,0,1,56.48,49.5Z"/><path class="cls-5" d="M62.71,63.93a29.17,29.17,0,0,0,5.27.43c2.31,0,4.81,0,6.69-1.32A7.09,7.09,0,0,0,77,59.83a14.28,14.28,0,0,0,.65-2.32L57,60.5a7.71,7.71,0,0,0,1,1.18A9.78,9.78,0,0,0,62.71,63.93Z"/><path class="cls-5" d="M77.93,55.93c0-.26.08-.51.12-.77L55.83,58.38a10.72,10.72,0,0,0,.49,1.06l21.54-3.12Z"/><path class="cls-5" d="M38.18,62.59a9.94,9.94,0,0,0,5.89-2.89l.11-.13L27.59,62a15.94,15.94,0,0,0,3.91.63A29.57,29.57,0,0,0,38.18,62.59Z"/><path class="cls-5" d="M45.69,57.07l-20.82,3a5.21,5.21,0,0,0,.73.79c.08.07.18.13.26.2l19.21-2.79A11.29,11.29,0,0,0,45.69,57.07Z"/><path d="M81.53,48.71c-.19-.33-1.47-.56-2.23-.7-9.3-1.67-16.6-1.74-25.82.33-4.15.41-7.79-1.12-11.89-2.27-6.07-1.71-12.54-1.13-18.84-.77-1.15.07-3.24-.08-3.46,1.05a8.82,8.82,0,0,0,0,2.94c.38.26,1.26.44,1.54.84a24.13,24.13,0,0,1,1.05,4.16L22.43,57A8.09,8.09,0,0,0,25,61.94c2.13,1.7,5.07,1.87,7.79,1.94a33.33,33.33,0,0,0,5.88-.21,11.75,11.75,0,0,0,5.43-2.14,8.27,8.27,0,0,0,1.8-2.48c.29-.49.55-1,.82-1.5l1.72-3.3a3.61,3.61,0,0,1,1.31-1.63,2.21,2.21,0,0,1,2.1.1,3.79,3.79,0,0,1,1.44,1.62,14.23,14.23,0,0,1,.77,2.05,15.88,15.88,0,0,0,2,4.82,10.71,10.71,0,0,0,6.17,3.66,31.88,31.88,0,0,0,7.28.56c1.91,0,4-.06,5.48-1.26a5.6,5.6,0,0,0,1.63-1.79,37.47,37.47,0,0,0,2.63-7,4.62,4.62,0,0,1,1.36-2.68,2.6,2.6,0,0,0,.51-.41,3.77,3.77,0,0,0,.49-1.71A3.12,3.12,0,0,0,81.53,48.71ZM46.58,54.47a12.61,12.61,0,0,1-2.52,5.23,9.94,9.94,0,0,1-5.89,2.89,29.57,29.57,0,0,1-6.67,0c-2.08-.15-4.32-.36-5.9-1.73a6.56,6.56,0,0,1-1.88-3.14,19.56,19.56,0,0,1-.6-3.66,14.44,14.44,0,0,1-.06-3.44,4.86,4.86,0,0,1,1.5-3,6.83,6.83,0,0,1,4.25-1.22,54.13,54.13,0,0,1,12,.8,15.86,15.86,0,0,1,3.42,1,4.53,4.53,0,0,1,2.5,2.35A6.28,6.28,0,0,1,46.58,54.47Zm31.35,1.46a19.23,19.23,0,0,1-.94,3.9A7.09,7.09,0,0,1,74.67,63C72.8,64.4,70.3,64.41,68,64.36a29.16,29.16,0,0,1-5.27-.43A9.77,9.77,0,0,1,58,61.68c-2.14-2-2.89-5.05-3.2-8a6.45,6.45,0,0,1,.08-2.47,2.46,2.46,0,0,1,1.61-1.75c3.88-1.79,11.3-2,17-1a6.33,6.33,0,0,1,3.61,1.55,4.56,4.56,0,0,1,1.12,2.79A12.77,12.77,0,0,1,77.93,55.93Z"/></svg>