<?xml version="1.0" encoding="utf-8"?>
<!-- Generator: Adobe Illustrator 19.0.0, SVG Export Plug-In . SVG Version: 6.00 Build 0)  -->
<svg version="1.1" id="Layer_1" xmlns="http://www.w3.org/2000/svg" xmlns:xlink="http://www.w3.org/1999/xlink" x="0px" y="0px"
	 viewBox="0 0 100 100" style="enable-background:new 0 0 100 100;" xml:space="preserve">
<style type="text/css">
	.st0{fill:#FFCC80;}
	.st1{opacity:0.51;fill:#FFB74D;}
	.st2{fill:none;}
	.st3{fill:#FFFFFF;}
</style>
<path id="XMLID_32_" class="st0" d="M27.8,70.1c0.1,0.3-0.1,0.6-0.4,0.8c-0.2,0.2-0.5,0.2-0.8,0.3c-0.3,0.1-0.7,0.1-1,0.1
	c-0.7-0.1-1.4-0.5-1.9-1.1c-0.4-0.4-0.7-0.8-1-1.3c-0.4-0.7-0.7-1.5-1-2.3c-0.8-2.4-1-4.9-1.3-7.4c-0.1-0.5-0.1-1-0.1-1.5
	c0-0.4,0.1-0.8,0.1-1.2c0.1-0.9,0.1-1.7,0.2-2.6c0-0.5,0.1-1,0.3-1.4c0.2-0.4,0.7-0.8,1.2-0.7c0.4,0,0.8,0.4,1.1,0.7
	c0.8,1,1.3,2.2,1.4,3.5c0,0.5,0,0.9,0.1,1.4c0.1,0.5,0.4,0.9,0.7,1.3c1.2,2,1.8,4.2,2.7,6.4c0.6,1.6,1.3,3.2,1.1,4.9
	c0,0.2-0.1,0.3-0.2,0.5C28.6,70.6,28.2,70.4,27.8,70.1L27.8,70.1z"/>
<path id="XMLID_31_" class="st1" d="M26.7,61.2c-0.6,0.1-0.6,0.2-1.2,0.3c-0.3,0.1-0.6,0.1-0.9,0.3c-0.4,0.3-0.6,0.9-0.4,1.4
	c0.2,0.5,0.6,0.9,1.1,1.1c0.4,0.2,1,0.3,1.2,0.7c0.1,0.3-0.7,0.7-1,0.9c-0.2,0.1-0.5,0.1-0.8,0c-0.2-0.1-0.4-0.3-0.6-0.5
	c-0.5-0.5-1-1-1.3-1.6c-0.3-0.6-0.4-1.4-0.3-2.1c0.1-0.7,0.3-1.4,0.6-2.1c0.1-0.2,0.2-0.5,0.3-0.7c0.2-0.2,0.4-0.4,0.7-0.3
	c0.3,0,0.5,0.3,0.5,0.5c0.9,0.4,1.8,0.9,2.5,1.5c0.1,0.1,0.2,0.2,0.1,0.4C27,61.1,26.7,61,26.7,61.2L26.7,61.2z"/>
<path id="XMLID_30_" class="st1" d="M21.2,53.7c0.7,0.5,1.2,1.4,1.2,2.2c0,0.7-0.2,1.3-0.4,2c-0.3,1-0.6,2-0.9,3
	c-0.2-1-0.3-2-0.3-3.1c0-0.7,0.1-1.4,0.2-2.1c0.1-0.5,0.1-1.1,0.2-1.6C21.2,54,21.2,53.9,21.2,53.7z"/>
<path id="XMLID_29_" class="st0" d="M74.9,58.7c0.3,0.6,0.3,1.3,0.2,1.9c-0.1,1-0.2,1.9-0.6,2.8c-0.2,0.5-0.5,1-0.7,1.6
	c-0.2,0.6-0.3,1.2-0.5,1.8c-0.3,1.6-0.7,3.1-1.1,4.6c-0.2,0.8-0.5,1.7-1.1,2.2c-0.5,0.4-1.3,0.5-1.9,0.4c-0.3,0-0.6-0.1-0.8-0.3
	c-0.3-0.2-0.4-0.5-0.6-0.8c-0.7-1.4-1.2-3-1.1-4.7c0.1-0.7,0.2-1.5,0.5-2.2c0.5-1.6,1.3-3.1,2.1-4.7c0.9-1.7,1.8-3.5,3.1-4.9
	c0.4,0.2,0.8,0.4,1.1,0.7C74,57.7,74.2,58.4,74.9,58.7"/>
<path id="XMLID_28_" class="st0" d="M26,71.6C29,86,35.9,94,47,94.8c0.7,0.1,1.4,0,2.1-0.2c12.6-3,19.1-10.3,21.1-20.7
	c1.5-9.7,3.2-20.1,2.9-24.5c0-0.3,0.5-0.7,0.5-0.9l1-16.2c0.1-1.6-0.7-3.1-2-3.9L53.2,17.5c-1-0.6-2.2-0.7-3.3-0.3l-21.4,7.4
	c-1.4,0.5-2.4,1.6-2.6,3.1l-2.6,13.2c-0.1,0.3-0.1,0.6-0.1,0.9l0.4,10.3c0,0.2,0,0.4,0.1,0.6l0.8,3.9c0.1,0.3,0.1,0.7,0.1,1
	C24.4,60.6,25,65.6,26,71.6z"/>
<path id="XMLID_27_" d="M24.1,54c0,0,0.1,0,0.1,0c0.1-0.3,0.3-0.6,0.5-0.8c0-0.2,0.1-0.4,0.2-0.6c0.4-1,0.6-2.6,0.6-3.8
	c0-0.2,0-0.5-0.3-0.6c-0.2-0.1-0.3,0-0.5,0.1c-0.1,0.1-0.2,0.3-0.3,0.4c-0.1,0.1-0.2,0.2-0.4,0.3c-0.3,0.2-0.7,0.3-1,0.4l0,0
	c-0.1,0.6-0.1,1.6-0.2,2.3c0.2,0.3,0.3,0.7,0.4,1c0.2,0.1,0.3,0.4,0.4,0.6c0,0.1,0.1,0.3,0.1,0.4C23.8,53.9,23.9,54,24.1,54z"/>
<path id="XMLID_25_" class="st2" d="M47.7,69.1"/>
<path id="XMLID_24_" class="st1" d="M74.9,58.7L74.9,58.7c-0.7-0.2-0.9-1-1.4-1.5c-0.2-0.2-0.5-0.4-0.8-0.5c0.3-3,0.5-5.5,0.3-7.1
	c0-0.3,0.5-0.7,0.5-0.9l0.8-13.9c0.1,0,0.2,0,0.3,0.1l0.1-3.4c0.1-1.6-0.8-3.1-2.2-3.8l-19.7-10c-1-0.5-2.2-0.6-3.3-0.2l-21,8.3
	c-1.3,0.5-2.3,1.7-2.5,3.2l-0.6,4.1c10.9-3.1,22.1-2.8,33.2-1.2c6,0.9,10.4,6.2,10,12.3l-0.2,3.5c0,0.3-0.6,0.8-0.6,1.1
	c0.5,5.1-1.6,17.1-3.3,28.3c-1.1,5.9-3.5,10.9-7.4,15C64.6,88,68.7,81.9,70.2,74c0,0,0,0,0,0c0.3-0.1,0.7-0.2,1-0.4
	c0.7-0.5,0.9-1.4,1.1-2.2c0.4-1.5,0.8-3.1,1.1-4.6c0.1-0.6,0.2-1.2,0.5-1.8c0.2-0.5,0.5-1,0.7-1.6c0.4-0.9,0.5-1.9,0.6-2.8
	C75.2,59.9,75.3,59.2,74.9,58.7z"/>
<path id="XMLID_23_" d="M24.9,57.2c-0.9-6.5-0.2-13.2,1.9-19.3c1-2.8,2.2-5.5,4.2-7.6c3.4-3.8,8.7-5.7,13.8-6S55,24.9,60,26.1
	c4,1,8.4,2.3,10.5,5.9c0.9,1.5,1.2,3.2,1.5,4.9c1.1,6,1.5,12.1,1.4,18.2c3.1-7.7,4.6-16.1,4.4-24.4c-0.1-3.2-1.2-6.3-1.7-9.4
	c-0.3-2.1-0.6-4.2-1.4-6.1c-0.8-1.9-2.1-3.7-4-4.6c-2-1-4.5-0.9-6.3-2.1c-1-0.6-1.7-1.6-2.8-2.1C61,6.1,60.2,6.1,59.4,6
	c-1.8-0.1-3.7-0.2-5.5-0.3c-1.5-0.1-3.1-0.2-4.6,0c-1.1,0.1-2.2,0.4-3.3,0.5S43.8,6,43,5.2c-0.2,0.3-0.4,0.6-0.6,0.9
	C41,5.6,39.3,5.7,38,6.6c-2.2-0.1-4.2,1.1-5.9,2.4c-1.9,1.5-3.6,3.2-5,5.1c-1.8,2.5-3.3,5.3-4.1,8.2c-0.4,1.3-0.7,2.6-0.9,3.9
	c-0.2,1.2-0.5,2.3-0.7,3.5c-0.8,3.8-1.6,7.9-0.1,11.5c0.9,2.1,0.4,4.4,0.7,6.7c0.1,1.2,0.2,2.3,0.6,3.4c0.4,1,0.9,1.9,1.4,2.9
	c0.5,0.9,0.9,2,0.8,3L24.9,57.2z"/>
<path id="XMLID_21_" d="M55.2,49.3c-0.3-0.6-0.1-1.3,0.4-1.7c0.5-0.4,1.1-0.6,1.7-0.8c2.1-0.6,4.3-1,6.6-1.2
	c1.6-0.2,3.2-0.2,4.6,0.4c1.1,0.5,2,1.4,2.5,2.5c0.1,0.3,0.2,0.7,0,1c-0.2,0.2-0.5,0.1-0.7,0.1c-4.2-0.8-8.5-0.5-12.7-0.1
	C56.7,49.4,55.3,49.5,55.2,49.3"/>
<path id="XMLID_19_" d="M28.2,46.8c-0.1-0.1-0.1-0.2,0-0.2c1.5-1.6,3.6-2.6,5.8-2.9c2.6-0.4,5.2,0.1,7.8,0.6
	c0.9,0.2,1.8,0.4,2.6,0.6c0.7,0.2,1.4,0.4,2,0.7c0.6,0.3,1.1,0.8,1.3,1.5c0.2,0.7,0.1,1.5-0.6,1.8c-0.4,0.2-0.9,0.2-1.4,0.1
	c-5.1-0.7-10.2-2.1-15.3-1.8C29.7,47.3,28.8,47.3,28.2,46.8z"/>
<path id="XMLID_18_" d="M53.5,48.8c8.2-1.8,14.7-1.8,23-0.3c0.7,0.1,1.8,0.3,2,0.6c0.3,0.4,0.2,1.2,0.1,1.7
	c-0.1,0.5-0.1,1.1-0.4,1.5c-0.1,0.2-0.3,0.2-0.5,0.4c-0.7,0.5-1,1.5-1.2,2.4c-0.6,2.2-1.4,4.2-2.4,6.2c-0.3,0.7-0.9,1.1-1.5,1.6
	c-1.3,1.1-3.2,1.1-4.9,1.1c-2.2,0-4.4,0-6.5-0.5c-2.1-0.5-4.2-1.5-5.5-3.3c-0.9-1.2-1.3-2.8-1.8-4.3c-0.2-0.6-0.4-1.2-0.7-1.8
	c-0.3-0.6-0.7-1.1-1.3-1.4c-0.6-0.3-1.3-0.4-1.9-0.1c-0.6,0.3-0.9,0.9-1.2,1.5c-0.5,1-1,2-1.5,2.9c-0.2,0.4-0.5,0.9-0.7,1.3
	c-0.5,0.8-0.9,1.7-1.6,2.2c-1.4,1.1-3.1,1.6-4.8,1.9c-1.7,0.3-3.5,0.2-5.2,0.2c-2.4-0.1-5.1-0.2-7-1.7c-1.3-1-2-2.7-2.3-4.4
	c-0.2-0.8-0.3-1.6-0.5-2.5c-0.2-1.3-0.5-2.5-0.9-3.7c-0.3-0.4-1-0.5-1.4-0.7c-0.2-0.1-0.1-2.2,0-2.6c0.2-1,2.1-0.9,3.1-0.9
	c5.6-0.3,11.4-0.8,16.8,0.7C46.6,47.8,49.8,49.1,53.5,48.8"/>
<path id="XMLID_14_" class="st3" d="M42.2,47.7c1,0.2,2.1,0.5,3,0.9c1,0.4,1.8,1.1,2.2,2.1c0.4,1.1,0.2,2.4-0.1,3.5
	c-0.5,1.7-1.1,3.4-2.2,4.7c-1.3,1.5-3.3,2.3-5.3,2.6c-2,0.3-4,0.2-5.9,0c-1.9-0.1-3.9-0.3-5.3-1.5c-0.8-0.7-1.4-1.7-1.7-2.8
	c-0.3-1.1-0.4-2.2-0.5-3.3c-0.1-1-0.2-2.1-0.1-3.1c0.1-1,0.6-2,1.3-2.7c1-0.9,2.5-1,3.8-1.1C35.1,46.9,38.7,47.1,42.2,47.7z"/>
<path id="XMLID_1_" class="st3" d="M56.2,49.8c3.5-1.6,10.1-1.7,15.1-0.9c1.2,0.2,2.4,0.5,3.2,1.4c0.6,0.7,0.9,1.6,1,2.5
	s-0.1,1.8-0.2,2.7c-0.2,1.2-0.4,2.4-0.8,3.5s-1.1,2.2-2.1,2.9c-1.7,1.2-3.9,1.2-6,1.2c-1.6,0-3.2-0.1-4.7-0.4s-3.1-0.9-4.2-2
	c-1.9-1.8-2.6-4.5-2.9-7.1c-0.1-0.7-0.1-1.5,0.1-2.2C55,50.6,55.5,50,56.2,49.8z"/>
</svg>
