<svg id="Layer_1" data-name="Layer 1" xmlns="http://www.w3.org/2000/svg" viewBox="0 0 100 100"><title>Artboard 1</title><path d="M99.24,22.88,67.57,7A1.08,1.08,0,0,0,67.12,7h0a1.15,1.15,0,0,0-1,.53L46.59,39.18l21.79,35.4L99.54,24a.75.75,0,0,0-.22-1Z"/><polygon points="36.27 28.03 36.27 62.2 66.65 77.39 36.27 28.03"/><path d="M69.3,78.7l27.9,14A1.76,1.76,0,0,0,100,90.93V28.87Z"/><path d="M32.91,23,3.69,8.43,1.85,7.5a1.69,1.69,0,0,0-.75-.2,1,1,0,0,0-.8.36,1.5,1.5,0,0,0-.3,1V75.33a3.67,3.67,0,0,0,1.85,3L30.56,92.67a2.53,2.53,0,0,0,1.12.29c1,0,1.65-.75,1.65-2V23.71A.74.74,0,0,0,32.91,23Z"/></svg>