<svg id="Layer_1" xmlns="http://www.w3.org/2000/svg" viewBox="0 0 64.6 100">
  <style>
    .st0{fill:#ffcc80}.st1{opacity:5.000000e-02;enable-background:new}.st2{fill:none}.st3{fill:#fff}
  </style>
  <path class="st0" d="M56 76.1c5.1-7.1 6.3-17.9 2.8-19.1-.6 5.5-1.8 12.4-2.8 19.1z"/>
  <path class="st1" d="M56 76.1c5.1-7.1 6.3-17.9 2.8-19.1-.6 5.5-1.8 12.4-2.8 19.1z"/>
  <path class="st0" d="M59.5 48.5c-.2-4.5-.7-8.9-1.5-13.3-.2-1.9-.8-3.8-1.7-5.5-2.3-4-7.3-5.5-11.8-6.6-5.6-1.4-11.4-2.5-17.1-2.2s-11.7 2.4-15.5 6.8c-2.1 2.5-3.7 5.4-4.7 8.6C5.2 42 4.4 48 4.7 54.1c0 .2-.1.4-.3.6-.1.1-.5-.1-.7-.4-.3-.6-.7-1.3-1-1.9-.2-.4-.4-.5-.7-.6-3-.6-2.8 15.7 1.8 20.6.7.6 1.6.9 2.4 1.2l.1.3C9.9 88.1 16 100 30.8 100c11.8-.4 23.5-11.5 25.1-23.4 1.7-10.9 3.6-22.5 3.2-27.5 0-.1.2-.4.4-.6z"/>
  <path id="_Path_" d="M38.1 49c-.3-.7-.1-1.5.4-2 .6-.4 1.2-.8 1.9-.9 2.4-.7 4.9-1.1 7.4-1.4 1.7-.3 3.5-.1 5.2.5 1.2.6 2.2 1.6 2.8 2.8.2.3.3.8 0 1.1-.2.1-.5.2-.8.1-4.7-.9-9.5-.5-14.3-.1-.9 0-2.4.1-2.6-.1"/>
  <path id="_Path_2" d="M7.8 46.2c-.1-.1-.1-.2 0-.3 1.7-1.8 4-3 6.5-3.2 2.9-.3 5.9-.1 8.7.7 1 .2 2 .4 3 .7.8.2 1.5.4 2.2.8.7.4 1.2 1 1.4 1.7.3.8 0 1.6-.6 2.1-.5.2-1 .3-1.5.1-5.7-.7-11.4-2.3-17.2-2-.8 0-1.7-.2-2.5-.6z"/>
  <path id="_Path_3" class="st2" d="M24.5 47.2c1.2.2 2.3.5 3.4 1 1.1.4 2 1.3 2.5 2.3.4 1.3.3 2.7-.2 4-.4 1.9-1.3 3.7-2.5 5.2-1.6 1.6-3.7 2.6-5.9 2.9-2.2.3-4.5.3-6.7 0-2.1-.2-4.3-.4-5.9-1.7-.9-.8-1.6-1.9-1.9-3.1-.3-1.2-.5-2.4-.6-3.7-.2-1.1-.2-2.3-.1-3.4s.7-2.2 1.5-3c1.2-.9 2.7-1.3 4.2-1.2 4.2-.2 8.3 0 12.2.7z"/>
  <path id="_Path_4" class="st2" d="M24.5 47.2c1.2.2 2.3.5 3.4 1 1.1.4 2 1.3 2.5 2.3.4 1.3.3 2.7-.2 4-.4 1.9-1.3 3.7-2.5 5.2-1.6 1.6-3.7 2.6-5.9 2.9-2.2.3-4.5.3-6.7 0-2.1-.2-4.3-.4-5.9-1.7-.9-.8-1.6-1.9-1.9-3.1-.3-1.2-.5-2.4-.6-3.7-.2-1.1-.2-2.3-.1-3.4s.7-2.2 1.5-3c1.2-.9 2.7-1.3 4.2-1.2 4.2-.2 8.3 0 12.2.7z"/>
  <path id="_Path_5" class="st2" d="M40.2 49.5c3.9-1.8 11.3-2 17-1 1.3.1 2.6.7 3.6 1.5.7.8 1.1 1.8 1.1 2.8 0 1 0 2-.2 3-.2 1.3-.5 2.6-.9 3.9-.5 1.3-1.3 2.4-2.4 3.2-1.9 1.4-4.4 1.4-6.7 1.4-1.8 0-3.5-.1-5.3-.4-1.8-.3-3.4-1.1-4.7-2.2-2.1-2-2.9-5-3.2-8-.1-.8-.1-1.7.1-2.5s.8-1.4 1.6-1.7z"/>
  <path class="st1" d="M56.3 29.6c-2.3-4-7.3-5.5-11.8-6.6-5.6-1.4-11.4-2.5-17.1-2.2s-11.7 2.5-15.5 6.8c-2.1 2.5-3.7 5.4-4.7 8.6-1.1 3.2-1.8 6.4-2.2 9.7.2.5.5 1 .8 1.6.4-2.5 1-4.9 1.9-7.3 1-3.1 2.6-6 4.7-8.6 3.8-4.3 9.7-6.4 15.5-6.8s11.5.8 17.1 2.2c4.5 1.1 9.4 2.6 11.8 6.6.9 1.7 1.5 3.6 1.7 5.5.4 2 .6 4 .9 6-.3-3.3-.7-6.7-1.3-10-.3-1.9-.9-3.8-1.8-5.5z"/>
  <path d="M24.8.5c-4.1-.7-7.9.6-11.6 3.2-2.1 1.7-4 3.6-5.6 5.7-2.1 2.9-3.6 6-4.6 9.3-.4 1.4-.7 2.9-1 4.3l-.9 4c-1 4.3-1.8 8.9-.1 12.9 1 2.3.5 5 .8 7.5 0 1.3.2 2.6.6 3.9.4 1 .8 1.9 1.4 2.8.2.3.6.5.7.4.2-.1.3-.4.3-.6-.3-6 .5-12 2.4-17.8 1-3.1 2.6-6 4.7-8.6 3.9-4.3 9.7-6.4 15.5-6.8s11.5.8 17.1 2.2c4.5 1.1 9.4 2.6 11.8 6.6.9 1.7 1.5 3.6 1.7 5.6 1.2 6.7 1.7 13.5 1.6 20.4 3.5-8.7 5.1-18 4.9-27.4-.1-3.5-1.3-7-1.9-10.5-.3-2.3-.8-4.6-1.6-6.8s-2.4-4.1-4.5-5.2c-2.2-1.1-5-1-7.1-2.4-1.1-.7-1.9-1.8-3.1-2.3-.8-.3-1.7-.4-2.5-.4L37.7.2C36 0 34.2 0 32.5.2c-1.2.2-2.4.4-3.7.5-1.3 0-2.6 0-4-.2z"/>
  <path id="_Path_6" class="st3" d="M23.5 47.2c1.2.2 2.3.5 3.4 1 1.1.4 2 1.3 2.5 2.3.4 1.3.3 2.7-.2 4-.4 1.9-1.3 3.7-2.5 5.2-1.6 1.6-3.7 2.6-5.9 2.9-2.2.3-4.5.3-6.7 0-2.1-.2-4.3-.4-5.9-1.7-.9-.8-1.6-1.9-1.9-3.1-.3-1.2-.5-2.4-.6-3.7-.2-1.1-.2-2.3-.1-3.4s.7-2.2 1.5-3c1.2-.9 2.7-1.3 4.3-1.2 4.1-.2 8.2 0 12.1.7z"/>
  <path id="_Path_7" class="st3" d="M39.2 49.5c3.9-1.8 11.3-2 17-1 1.3.1 2.6.7 3.6 1.5.7.8 1.1 1.8 1.1 2.8 0 1 0 2-.2 3-.2 1.3-.5 2.6-.9 3.9-.5 1.3-1.3 2.4-2.4 3.2-1.9 1.4-4.4 1.4-6.7 1.4-1.8 0-3.5-.1-5.3-.4-1.8-.3-3.4-1.1-4.7-2.2-2.1-2-2.9-5-3.2-8-.1-.8-.1-1.7.1-2.5s.8-1.4 1.6-1.7z"/>
  <path d="M64.2 48.7c-.2-.3-1.4-.6-2.2-.7-9.3-1.7-16.6-1.7-25.8.3-4.2.4-7.8-1.1-11.9-2.3-6.1-1.7-12.5-1.1-18.8-.8-1.1.1-3.2-.1-3.5 1-.2 1-.2 2 0 2.9.4.3 1.3.4 1.5.8.5 1.4.8 2.7 1 4.2l.6 2.9c.2 1.9 1.2 3.6 2.6 4.9 2.1 1.7 5.1 1.9 7.8 1.9 2 .1 3.9 0 5.9-.2 2-.2 3.8-1 5.4-2.1.7-.7 1.4-1.5 1.8-2.5.3-.5.5-1 .8-1.5l1.7-3.3c.3-.7.7-1.2 1.3-1.6.7-.3 1.5-.3 2.1.1.6.4 1.1 1 1.4 1.6.3.7.6 1.3.8 2 .4 1.7 1.1 3.3 2 4.8 1.6 1.9 3.8 3.2 6.2 3.7 2.4.5 4.8.7 7.3.6 1.9 0 4-.1 5.5-1.3.7-.5 1.2-1.1 1.6-1.8 1.1-2.2 2-4.6 2.6-7 .1-1 .6-2 1.4-2.7.2-.1.4-.3.5-.4.3-.5.5-1.1.5-1.7.2-.5.2-1.2-.1-1.8zm-34.9 5.8c-.4 1.9-1.3 3.7-2.5 5.2-1.6 1.6-3.7 2.6-5.9 2.9-2.2.3-4.5.3-6.7 0-2.1-.2-4.3-.4-5.9-1.7-.9-.8-1.6-1.9-1.9-3.1-.3-1.2-.5-2.4-.6-3.7-.2-1.1-.2-2.3-.1-3.4s.7-2.2 1.5-3c1.2-.9 2.7-1.3 4.3-1.2 4-.2 8 .1 12 .8 1.2.2 2.3.5 3.4 1 1.1.4 2 1.3 2.5 2.3.4 1.2.4 2.6-.1 3.9zm31.3 1.4c-.2 1.3-.5 2.6-.9 3.9-.5 1.3-1.3 2.4-2.3 3.2-1.9 1.4-4.4 1.4-6.7 1.4-1.8 0-3.5-.1-5.3-.4-1.8-.3-3.4-1.1-4.7-2.2-2.1-2-2.9-5-3.2-8-.1-.8-.1-1.7.1-2.5s.8-1.5 1.6-1.8c3.9-1.8 11.3-2 17-1 1.3.1 2.6.7 3.6 1.5.7.8 1.1 1.8 1.1 2.8.1 1.1 0 2.1-.3 3.1z"/>
</svg>