<?xml version="1.0" encoding="utf-8"?>
<!-- Generator: Adobe Illustrator 21.0.2, SVG Export Plug-In . SVG Version: 6.00 Build 0)  -->
<svg version="1.1" id="Layer_1" xmlns="http://www.w3.org/2000/svg" xmlns:xlink="http://www.w3.org/1999/xlink" x="0px" y="0px"
	 viewBox="0 0 64.6 100" style="enable-background:new 0 0 64.6 100;" xml:space="preserve">
<style type="text/css">
	.st0{fill:#FFCC80;}
	.st1{opacity:5.000000e-02;enable-background:new    ;}
	.st2{fill:none;}
	.st3{fill:#FFFFFF;}
</style>
<title>Artboard 6</title>
<path class="st0" d="M56,76.1c5.1-7.1,6.3-17.9,2.8-19.1C58.2,62.5,57,69.4,56,76.1z"/>
<path class="st1" d="M56,76.1c5.1-7.1,6.3-17.9,2.8-19.1C58.2,62.5,57,69.4,56,76.1z"/>
<path class="st0" d="M59.5,48.5c-0.2-4.5-0.7-8.9-1.5-13.3c-0.2-1.9-0.8-3.8-1.7-5.5c-2.3-4-7.3-5.5-11.8-6.6
	c-5.6-1.4-11.4-2.5-17.1-2.2s-11.7,2.4-15.5,6.8c-2.1,2.5-3.7,5.4-4.7,8.6c-2,5.7-2.8,11.7-2.5,17.8c0,0.2-0.1,0.4-0.3,0.6
	c-0.1,0.1-0.5-0.1-0.7-0.4c-0.3-0.6-0.7-1.3-1-1.9C2.5,52,2.3,51.9,2,51.8c-3-0.6-2.8,15.7,1.8,20.6c0.7,0.6,1.6,0.9,2.4,1.2
	l0.1,0.3C9.9,88.1,16,100,30.8,100c11.8-0.4,23.5-11.5,25.1-23.4c1.7-10.9,3.6-22.5,3.2-27.5C59.1,49,59.3,48.7,59.5,48.5z"/>
<path id="_Path_" d="M38.1,49c-0.3-0.7-0.1-1.5,0.4-2c0.6-0.4,1.2-0.8,1.9-0.9c2.4-0.7,4.9-1.1,7.4-1.4c1.7-0.3,3.5-0.1,5.2,0.5
	c1.2,0.6,2.2,1.6,2.8,2.8c0.2,0.3,0.3,0.8,0,1.1c-0.2,0.1-0.5,0.2-0.8,0.1c-4.7-0.9-9.5-0.5-14.3-0.1C39.8,49.1,38.3,49.2,38.1,49"
	/>
<path id="_Path_2" d="M7.8,46.2c-0.1-0.1-0.1-0.2,0-0.3c1.7-1.8,4-3,6.5-3.2c2.9-0.3,5.9-0.1,8.7,0.7c1,0.2,2,0.4,3,0.7
	c0.8,0.2,1.5,0.4,2.2,0.8c0.7,0.4,1.2,1,1.4,1.7c0.3,0.8,0,1.6-0.6,2.1c-0.5,0.2-1,0.3-1.5,0.1c-5.7-0.7-11.4-2.3-17.2-2
	C9.5,46.8,8.6,46.6,7.8,46.2z"/>
<path id="_Path_3" class="st2" d="M24.5,47.2c1.2,0.2,2.3,0.5,3.4,1c1.1,0.4,2,1.3,2.5,2.3c0.4,1.3,0.3,2.7-0.2,4
	c-0.4,1.9-1.3,3.7-2.5,5.2c-1.6,1.6-3.7,2.6-5.9,2.9c-2.2,0.3-4.5,0.3-6.7,0c-2.1-0.2-4.3-0.4-5.9-1.7c-0.9-0.8-1.6-1.9-1.9-3.1
	c-0.3-1.2-0.5-2.4-0.6-3.7c-0.2-1.1-0.2-2.3-0.1-3.4c0.1-1.1,0.7-2.2,1.5-3c1.2-0.9,2.7-1.3,4.2-1.2C16.5,46.3,20.6,46.5,24.5,47.2z
	"/>
<path id="_Path_4" class="st2" d="M24.5,47.2c1.2,0.2,2.3,0.5,3.4,1c1.1,0.4,2,1.3,2.5,2.3c0.4,1.3,0.3,2.7-0.2,4
	c-0.4,1.9-1.3,3.7-2.5,5.2c-1.6,1.6-3.7,2.6-5.9,2.9c-2.2,0.3-4.5,0.3-6.7,0c-2.1-0.2-4.3-0.4-5.9-1.7c-0.9-0.8-1.6-1.9-1.9-3.1
	c-0.3-1.2-0.5-2.4-0.6-3.7c-0.2-1.1-0.2-2.3-0.1-3.4c0.1-1.1,0.7-2.2,1.5-3c1.2-0.9,2.7-1.3,4.2-1.2C16.5,46.3,20.6,46.5,24.5,47.2z
	"/>
<path id="_Path_5" class="st2" d="M40.2,49.5c3.9-1.8,11.3-2,17-1c1.3,0.1,2.6,0.7,3.6,1.5c0.7,0.8,1.1,1.8,1.1,2.8c0,1,0,2-0.2,3
	c-0.2,1.3-0.5,2.6-0.9,3.9c-0.5,1.3-1.3,2.4-2.4,3.2c-1.9,1.4-4.4,1.4-6.7,1.4c-1.8,0-3.5-0.1-5.3-0.4c-1.8-0.3-3.4-1.1-4.7-2.2
	c-2.1-2-2.9-5-3.2-8c-0.1-0.8-0.1-1.7,0.1-2.5C38.8,50.4,39.4,49.8,40.2,49.5z"/>
<path class="st1" d="M56.3,29.6c-2.3-4-7.3-5.5-11.8-6.6c-5.6-1.4-11.4-2.5-17.1-2.2s-11.7,2.5-15.5,6.8c-2.1,2.5-3.7,5.4-4.7,8.6
	c-1.1,3.2-1.8,6.4-2.2,9.7c0.2,0.5,0.5,1,0.8,1.6c0.4-2.5,1-4.9,1.9-7.3c1-3.1,2.6-6,4.7-8.6c3.8-4.3,9.7-6.4,15.5-6.8
	s11.5,0.8,17.1,2.2c4.5,1.1,9.4,2.6,11.8,6.6c0.9,1.7,1.5,3.6,1.7,5.5c0.4,2,0.6,4,0.9,6c-0.3-3.3-0.7-6.7-1.3-10
	C57.8,33.2,57.2,31.3,56.3,29.6z"/>
<path d="M24.8,0.5c-4.1-0.7-7.9,0.6-11.6,3.2c-2.1,1.7-4,3.6-5.6,5.7C5.5,12.3,4,15.4,3,18.7c-0.4,1.4-0.7,2.9-1,4.3l-0.9,4
	C0.1,31.3-0.7,35.9,1,39.9c1,2.3,0.5,5,0.8,7.5C1.8,48.7,2,50,2.4,51.3c0.4,1,0.8,1.9,1.4,2.8c0.2,0.3,0.6,0.5,0.7,0.4
	c0.2-0.1,0.3-0.4,0.3-0.6c-0.3-6,0.5-12,2.4-17.8c1-3.1,2.6-6,4.7-8.6c3.9-4.3,9.7-6.4,15.5-6.8s11.5,0.8,17.1,2.2
	c4.5,1.1,9.4,2.6,11.8,6.6c0.9,1.7,1.5,3.6,1.7,5.6c1.2,6.7,1.7,13.5,1.6,20.4c3.5-8.7,5.1-18,4.9-27.4c-0.1-3.5-1.3-7-1.9-10.5
	c-0.3-2.3-0.8-4.6-1.6-6.8c-0.8-2.2-2.4-4.1-4.5-5.2c-2.2-1.1-5-1-7.1-2.4c-1.1-0.7-1.9-1.8-3.1-2.3c-0.8-0.3-1.7-0.4-2.5-0.4
	l-6.1-0.3c-1.7-0.2-3.5-0.2-5.2,0c-1.2,0.2-2.4,0.4-3.7,0.5C27.5,0.7,26.2,0.7,24.8,0.5z"/>
<path id="_Path_6" class="st3" d="M23.5,47.2c1.2,0.2,2.3,0.5,3.4,1c1.1,0.4,2,1.3,2.5,2.3c0.4,1.3,0.3,2.7-0.2,4
	c-0.4,1.9-1.3,3.7-2.5,5.2c-1.6,1.6-3.7,2.6-5.9,2.9c-2.2,0.3-4.5,0.3-6.7,0c-2.1-0.2-4.3-0.4-5.9-1.7c-0.9-0.8-1.6-1.9-1.9-3.1
	c-0.3-1.2-0.5-2.4-0.6-3.7c-0.2-1.1-0.2-2.3-0.1-3.4c0.1-1.1,0.7-2.2,1.5-3c1.2-0.9,2.7-1.3,4.3-1.2C15.5,46.3,19.6,46.5,23.5,47.2z
	"/>
<path id="_Path_7" class="st3" d="M39.2,49.5c3.9-1.8,11.3-2,17-1c1.3,0.1,2.6,0.7,3.6,1.5c0.7,0.8,1.1,1.8,1.1,2.8c0,1,0,2-0.2,3
	c-0.2,1.3-0.5,2.6-0.9,3.9c-0.5,1.3-1.3,2.4-2.4,3.2c-1.9,1.4-4.4,1.4-6.7,1.4c-1.8,0-3.5-0.1-5.3-0.4c-1.8-0.3-3.4-1.1-4.7-2.2
	c-2.1-2-2.9-5-3.2-8c-0.1-0.8-0.1-1.7,0.1-2.5C37.8,50.4,38.4,49.8,39.2,49.5z"/>
<path d="M64.2,48.7C64,48.4,62.8,48.1,62,48c-9.3-1.7-16.6-1.7-25.8,0.3c-4.2,0.4-7.8-1.1-11.9-2.3c-6.1-1.7-12.5-1.1-18.8-0.8
	c-1.1,0.1-3.2-0.1-3.5,1c-0.2,1-0.2,2,0,2.9c0.4,0.3,1.3,0.4,1.5,0.8c0.5,1.4,0.8,2.7,1,4.2L5.1,57c0.2,1.9,1.2,3.6,2.6,4.9
	c2.1,1.7,5.1,1.9,7.8,1.9c2,0.1,3.9,0,5.9-0.2c2-0.2,3.8-1,5.4-2.1c0.7-0.7,1.4-1.5,1.8-2.5c0.3-0.5,0.5-1,0.8-1.5l1.7-3.3
	c0.3-0.7,0.7-1.2,1.3-1.6c0.7-0.3,1.5-0.3,2.1,0.1c0.6,0.4,1.1,1,1.4,1.6c0.3,0.7,0.6,1.3,0.8,2c0.4,1.7,1.1,3.3,2,4.8
	c1.6,1.9,3.8,3.2,6.2,3.7c2.4,0.5,4.8,0.7,7.3,0.6c1.9,0,4-0.1,5.5-1.3c0.7-0.5,1.2-1.1,1.6-1.8c1.1-2.2,2-4.6,2.6-7
	c0.1-1,0.6-2,1.4-2.7c0.2-0.1,0.4-0.3,0.5-0.4c0.3-0.5,0.5-1.1,0.5-1.7C64.5,50,64.5,49.3,64.2,48.7z M29.3,54.5
	c-0.4,1.9-1.3,3.7-2.5,5.2c-1.6,1.6-3.7,2.6-5.9,2.9c-2.2,0.3-4.5,0.3-6.7,0c-2.1-0.2-4.3-0.4-5.9-1.7c-0.9-0.8-1.6-1.9-1.9-3.1
	c-0.3-1.2-0.5-2.4-0.6-3.7c-0.2-1.1-0.2-2.3-0.1-3.4c0.1-1.1,0.7-2.2,1.5-3c1.2-0.9,2.7-1.3,4.3-1.2c4-0.2,8,0.1,12,0.8
	c1.2,0.2,2.3,0.5,3.4,1c1.1,0.4,2,1.3,2.5,2.3C29.8,51.8,29.8,53.2,29.3,54.5z M60.6,55.9c-0.2,1.3-0.5,2.6-0.9,3.9
	c-0.5,1.3-1.3,2.4-2.3,3.2c-1.9,1.4-4.4,1.4-6.7,1.4c-1.8,0-3.5-0.1-5.3-0.4c-1.8-0.3-3.4-1.1-4.7-2.2c-2.1-2-2.9-5-3.2-8
	c-0.1-0.8-0.1-1.7,0.1-2.5c0.2-0.8,0.8-1.5,1.6-1.8c3.9-1.8,11.3-2,17-1c1.3,0.1,2.6,0.7,3.6,1.5c0.7,0.8,1.1,1.8,1.1,2.8
	C61,53.9,60.9,54.9,60.6,55.9z"/>
</svg>
