<svg fill="#333333" xmlns="http://www.w3.org/2000/svg" viewBox="0 0 100 100">
  <path d="M100 19a41 41 0 0 1-11.78 3.23 20.6 20.6 0 0 0 9-11.34 41.36 41.36 0 0 1-13 5 20.53 20.53 0 0 0-35 18.7A58.24 58.24 0 0 1 7 13.14a20.54 20.54 0 0 0 6.35 27.38A20.52 20.52 0 0 1 4 38v.26a20.53 20.53 0 0 0 16.48 20.06 20.78 20.78 0 0 1-5.41.72 19.69 19.69 0 0 1-3.86-.38 20.52 20.52 0 0 0 19.16 14.25 41.16 41.16 0 0 1-25.48 8.77A43.6 43.6 0 0 1 0 81.39a58 58 0 0 0 31.44 9.23c37.74 0 58.36-31.26 58.36-58.36l-.07-2.66A41 41 0 0 0 100 19z"/>
</svg>