<svg id="Layer_1" data-name="Layer 1" xmlns="http://www.w3.org/2000/svg" viewBox="0 0 100 100"><title>Artboard 4</title><path d="M50,0a50,50,0,1,0,50,50A50,50,0,0,0,50,0ZM79.69,79.69a41.86,41.86,0,0,1-13.35,9q-1.9.81-3.87,1.42V82.62q0-5.91-4.05-8.69a43.75,43.75,0,0,0,4.66-.68A35.19,35.19,0,0,0,67.58,72a22.25,22.25,0,0,0,4.25-2,17.71,17.71,0,0,0,3.61-3,17.42,17.42,0,0,0,2.91-4.15A22.75,22.75,0,0,0,80.2,57.3a34.76,34.76,0,0,0,.68-7.15A18.28,18.28,0,0,0,76,37.26q2.25-5.86-.49-12.74l-1.22-.15a12.06,12.06,0,0,0-4.57,1.07,35.57,35.57,0,0,0-7.4,4,44.92,44.92,0,0,0-12.06-1.61,44,44,0,0,0-12,1.61,41.82,41.82,0,0,0-4.91-2.91A25.26,25.26,0,0,0,29.59,25,12.73,12.73,0,0,0,27,24.46a9.17,9.17,0,0,0-1.54,0,3.12,3.12,0,0,0-.49.1q-2.73,6.93-.49,12.74a18.28,18.28,0,0,0-4.93,12.89,34.78,34.78,0,0,0,.68,7.15,22.76,22.76,0,0,0,1.86,5.57A17.43,17.43,0,0,0,25,67a17.72,17.72,0,0,0,3.61,3,22.27,22.27,0,0,0,4.25,2,35.2,35.2,0,0,0,4.49,1.27,43.76,43.76,0,0,0,4.66.68q-4,2.73-4,8.69v7.64a42,42,0,0,1-4.36-79,42,42,0,0,1,46,68.39Z"/></svg>