<svg id="Layer_1" data-name="Layer 1" xmlns="http://www.w3.org/2000/svg" viewBox="0 0 100 100"><title>Artboard 1</title><path d="M99.27,22.92,67.59,7.08A1.08,1.08,0,0,0,67.14,7h0a1.15,1.15,0,0,0-1,.53L46.6,39.23,68.4,74.64,99.57,24A.75.75,0,0,0,99.27,22.92Z"/><polygon points="36.28 28.07 36.28 62.26 66.67 77.45 36.28 28.07"/><path d="M69.32,78.76l27.91,14A1.76,1.76,0,0,0,100,91V28.91Z"/><path d="M32.92,23.08,3.69,8.47,1.85,7.54a1.69,1.69,0,0,0-.75-.2,1,1,0,0,0-.8.36,1.5,1.5,0,0,0-.3,1V75.39a3.67,3.67,0,0,0,1.85,3L30.57,92.74a2.53,2.53,0,0,0,1.12.29c1,0,1.65-.75,1.65-2V23.75A.74.74,0,0,0,32.92,23.08Z"/></svg>